<?xml version="1.0" encoding="utf-8"?>
<!-- Generator: Adobe Illustrator 16.0.0, SVG Export Plug-In . SVG Version: 6.00 Build 0)  -->
<!DOCTYPE svg PUBLIC "-//W3C//DTD SVG 1.1//EN" "http://www.w3.org/Graphics/SVG/1.1/DTD/svg11.dtd">
<svg version="1.1" id="Layer_1" focusable="false" xmlns="http://www.w3.org/2000/svg" xmlns:xlink="http://www.w3.org/1999/xlink"
	 x="0px" y="0px" width="64px" height="64px" viewBox="0 0 64 64" enable-background="new 0 0 64 64" xml:space="preserve">
<path opacity="0.25" fill="#DDDDDD" d="M61.758,16.992c-0.712-2.687-2.815-4.806-5.49-5.525C51.426,10.159,32,10,32,10
	s-19.426,0.159-24.268,1.467c-2.675,0.72-4.778,2.839-5.494,5.525C0.938,21.871,1,32.044,1,32.044S0.938,42.217,2.238,47.092
	c0.716,2.69,2.819,4.722,5.494,5.438C12.574,53.841,32,54,32,54s19.426-0.159,24.268-1.471c2.675-0.716,4.778-2.747,5.49-5.438
	c1.304-4.875,1.241-15.048,1.241-15.048S63.062,21.871,61.758,16.992z M25.646,41.281V22.808l16.239,9.236L25.646,41.281z"/>
</svg>
