<?xml version="1.0" encoding="utf-8"?>
<!-- Generator: Adobe Illustrator 16.0.0, SVG Export Plug-In . SVG Version: 6.00 Build 0)  -->
<!DOCTYPE svg PUBLIC "-//W3C//DTD SVG 1.1//EN" "http://www.w3.org/Graphics/SVG/1.1/DTD/svg11.dtd">
<svg version="1.1" id="Layer_1" xmlns="http://www.w3.org/2000/svg" xmlns:xlink="http://www.w3.org/1999/xlink" x="0px" y="0px"
	 width="64px" height="64px" viewBox="2 24 64 64" enable-background="new 2 24 64 64" xml:space="preserve">
<path opacity="0.25" fill="#DDDDDD" d="M34,25C16.881,25,3,38.882,3,56c0,17.123,13.881,31,31,31c17.123,0,31-13.877,31-31
	C65,38.882,51.123,25,34,25z M51.757,69.592l-5.43,0.075c0,0-1.172,0.234-2.71-0.821c-2.032-1.397-3.95-5.023-5.446-4.549
	c-1.517,0.476-1.468,3.745-1.468,3.745s0.015,0.694-0.332,1.067c-0.375,0.404-1.111,0.482-1.111,0.482h-2.432
	c0,0-5.368,0.324-10.095-4.597c-5.156-5.369-9.71-16.021-9.71-16.021s-0.26-0.695,0.022-1.034c0.321-0.378,1.194-0.405,1.194-0.405
	l5.814-0.041c0,0,0.551,0.097,0.942,0.383C21.32,48.114,21.5,48.56,21.5,48.56s0.94,2.376,2.186,4.532
	c2.43,4.196,3.561,5.117,4.385,4.664c1.206-0.656,0.844-5.936,0.844-5.936s0.021-1.916-0.605-2.769
	c-0.486-0.661-1.4-0.855-1.809-0.908c-0.326-0.044,0.211-0.804,0.905-1.146c1.05-0.511,2.896-0.545,5.083-0.519
	c1.698,0.017,2.189,0.124,2.854,0.283c2.005,0.484,1.327,2.354,1.327,6.84c0,1.434-0.262,3.456,0.775,4.127
	c0.445,0.285,1.535,0.041,4.262-4.587c1.294-2.194,2.263-4.773,2.263-4.773s0.208-0.463,0.542-0.657
	c0.334-0.2,0.785-0.14,0.785-0.14l6.122-0.039c0,0,1.841-0.221,2.137,0.61c0.31,0.872-0.688,2.906-3.188,6.238
	c-4.107,5.474-4.563,4.96-1.155,8.123c3.257,3.027,3.931,4.495,4.042,4.677C54.601,69.422,51.757,69.592,51.757,69.592z"/>
</svg>
