<?xml version="1.0" encoding="utf-8"?>
<!-- Generator: Adobe Illustrator 16.0.0, SVG Export Plug-In . SVG Version: 6.00 Build 0)  -->
<!DOCTYPE svg PUBLIC "-//W3C//DTD SVG 1.1//EN" "http://www.w3.org/Graphics/SVG/1.1/DTD/svg11.dtd">
<svg version="1.1" id="whatsapp" xmlns="http://www.w3.org/2000/svg" xmlns:xlink="http://www.w3.org/1999/xlink" x="0px" y="0px"
	 width="64px" height="64px" viewBox="0 0 64 64" enable-background="new 0 0 64 64" xml:space="preserve">
<path fill="#FFFFFF" d="M2.207,61.928l4.209-15.369c-2.597-4.498-3.962-9.602-3.961-14.828C2.462,15.378,15.771,2.073,32.124,2.073
	c7.937,0.004,15.386,3.092,20.986,8.699c5.603,5.606,8.686,13.057,8.683,20.982c-0.007,16.354-13.317,29.659-29.668,29.659
	c-0.001,0,0.001,0,0,0h-0.013c-4.965-0.002-9.844-1.248-14.177-3.609L2.207,61.928L2.207,61.928z"/>
<path fill="#00A651" d="M24.448,18.878c-0.575-1.279-1.181-1.305-1.728-1.327c-0.448-0.02-0.96-0.019-1.472-0.019
	c-0.512,0-1.344,0.193-2.048,0.961c-0.704,0.769-2.688,2.626-2.688,6.404c0,3.779,2.752,7.43,3.136,7.942
	c0.384,0.512,5.313,8.513,13.117,11.591c6.487,2.558,7.807,2.049,9.215,1.921s4.543-1.857,5.184-3.65
	c0.64-1.793,0.64-3.329,0.448-3.651c-0.192-0.319-0.704-0.512-1.473-0.896c-0.768-0.384-4.543-2.242-5.247-2.498
	s-1.216-0.384-1.728,0.385c-0.513,0.769-1.983,2.497-2.432,3.009c-0.447,0.514-0.896,0.578-1.663,0.193
	c-0.769-0.385-3.242-1.195-6.176-3.811c-2.282-2.036-3.824-4.549-4.271-5.318c-0.448-0.768-0.048-1.184,0.337-1.567
	c0.345-0.344,0.768-0.896,1.152-1.345c0.383-0.448,0.511-0.769,0.767-1.28c0.256-0.513,0.128-0.961-0.064-1.345
	C26.623,24.193,25.131,20.396,24.448,18.878L24.448,18.878z"/>
<path fill="#00A651" d="M53.869,10.01C48.065,4.203,40.35,1.003,32.129,1C15.189,1,1.403,14.781,1.396,31.721
	c-0.002,5.415,1.413,10.7,4.102,15.359L1.138,63l16.292-4.271c4.489,2.448,9.542,3.737,14.686,3.74h0.013h0
	c16.937,0,30.725-13.785,30.732-30.723C62.865,23.536,59.671,15.817,53.869,10.01L53.869,10.01z M32.129,57.279h-0.01
	c-4.584-0.002-9.08-1.233-13.001-3.56l-0.933-0.554l-9.668,2.535l2.581-9.423l-0.608-0.966c-2.557-4.066-3.907-8.765-3.905-13.589
	C6.59,17.644,18.049,6.189,32.139,6.189c6.823,0.003,13.236,2.663,18.059,7.489c4.823,4.827,7.478,11.243,7.476,18.066
	C57.666,45.823,46.208,57.279,32.129,57.279z"/>
</svg>
