<?xml version="1.0" encoding="utf-8"?>
<!-- Generator: Adobe Illustrator 16.0.0, SVG Export Plug-In . SVG Version: 6.00 Build 0)  -->
<!DOCTYPE svg PUBLIC "-//W3C//DTD SVG 1.1//EN" "http://www.w3.org/Graphics/SVG/1.1/DTD/svg11.dtd">
<svg version="1.1" id="skype" xmlns="http://www.w3.org/2000/svg" xmlns:xlink="http://www.w3.org/1999/xlink" x="0px" y="0px"
	 width="64px" height="64px" viewBox="0 0 64 64" enable-background="new 0 0 64 64" xml:space="preserve">
<g>
	<path fill="#FFFFFF" d="M58.568,38.136l-0.445-0.725l0.154-0.772c0.306-1.432,0.454-2.983,0.454-4.742
		c0-14.712-11.969-26.681-26.681-26.681c-1.584,0-3.122,0.22-4.62,0.434l-0.894,0.176l-0.679-0.418l-0.116-0.066
		c-2.373-1.249-4.839-1.882-7.331-1.882c-8.216,0-14.901,6.684-14.901,14.901c0,2.709,0.646,5.199,1.92,7.4l0.544,0.851l-0.15,0.75
		c-0.306,1.432-0.454,2.983-0.454,4.742c0,14.712,11.969,26.681,26.68,26.681c1.661,0,3.204-0.216,4.642-0.437l0.873-0.173
		l0.679,0.418l0.116,0.066c2.372,1.249,4.839,1.882,7.33,1.882c4.002,0,7.748-1.564,10.547-4.403
		c2.796-2.836,4.305-6.604,4.251-10.615C60.486,42.818,59.84,40.333,58.568,38.136z"/>
	<path fill="#00AEEF" d="M60.727,37.063c0.31-1.653,0.413-3.307,0.413-5.063C61.14,15.88,48.12,2.86,32,2.86
		c-1.757,0-3.41,0.103-5.063,0.413C24.353,1.827,21.46,1,18.36,1C8.75,1,1,8.75,1,18.36c0,3.1,0.827,6.097,2.273,8.577
		C2.963,28.59,2.86,30.243,2.86,32c0,16.12,13.02,29.14,29.14,29.14c1.757,0,3.41-0.104,5.063-0.413
		C39.646,62.173,42.54,63,45.64,63C55.25,63,63,55.25,63,45.64C63,42.54,62.173,39.646,60.727,37.063L60.727,37.063z M45.64,58.557
		c-2.273,0-4.443-0.62-6.406-1.653l-1.344-0.827l-1.55,0.311C34.997,56.593,33.55,56.8,32,56.8
		c-13.64,0-24.697-11.057-24.697-24.697c0-1.446,0.104-2.893,0.414-4.34l0.31-1.55l-0.93-1.447
		c-1.136-1.963-1.653-4.133-1.653-6.407c0-7.13,5.787-12.917,12.917-12.917c2.273,0,4.443,0.62,6.407,1.653l1.343,0.827l1.55-0.31
		C29.106,7.407,30.553,7.2,32,7.2c13.64,0,24.696,11.057,24.696,24.697c0,1.446-0.104,2.893-0.413,4.34l-0.31,1.549L56.8,39.13
		c1.137,1.963,1.653,4.134,1.653,6.407C58.557,52.77,52.77,58.557,45.64,58.557z"/>
	<path fill="#00AEEF" d="M37.27,29.21l-6.51-1.447c-2.479-0.62-5.27-1.343-5.27-3.72c0-2.377,1.963-4.03,5.58-4.03
		c7.336,0,6.716,5.063,10.333,5.063c1.859,0,3.514-1.033,3.514-2.997c0-4.546-7.233-7.956-13.434-7.956
		c-6.613,0-13.64,2.687-13.64,10.333c0,3.617,1.24,7.543,8.37,9.403l8.886,2.273c2.687,0.62,3.514,2.171,3.514,3.514
		c0,2.273-2.377,4.753-6.407,4.753c-7.957,0-6.82-6.303-11.057-6.303c-1.86,0-3.41,1.343-3.41,3.203
		c0,3.72,4.546,8.783,14.466,8.783c9.506,0,14.26-4.753,14.26-10.953C46.363,34.997,44.503,30.863,37.27,29.21L37.27,29.21z"/>
</g>
</svg>
