<?xml version="1.0" encoding="utf-8"?>
<!-- Generator: Adobe Illustrator 16.0.0, SVG Export Plug-In . SVG Version: 6.00 Build 0)  -->
<!DOCTYPE svg PUBLIC "-//W3C//DTD SVG 1.1//EN" "http://www.w3.org/Graphics/SVG/1.1/DTD/svg11.dtd">
<svg version="1.1" id="skype" xmlns="http://www.w3.org/2000/svg" xmlns:xlink="http://www.w3.org/1999/xlink" x="0px" y="0px"
	 width="64px" height="64px" viewBox="0 0 64 64" enable-background="new 0 0 64 64" xml:space="preserve">
<path opacity="0.25" fill="#DDDDDD" d="M60.727,37.063c0.311-1.652,0.414-3.307,0.414-5.063C61.141,15.88,48.12,2.86,32,2.86
	c-1.757,0-3.41,0.103-5.063,0.413C24.353,1.827,21.46,1,18.36,1C8.75,1,1,8.75,1,18.36c0,3.1,0.827,6.097,2.273,8.577
	C2.963,28.59,2.86,30.243,2.86,32c0,16.12,13.02,29.141,29.14,29.141c1.757,0,3.41-0.104,5.063-0.414
	C39.646,62.173,42.54,63,45.641,63C55.25,63,63,55.25,63,45.641C63,42.54,62.173,39.646,60.727,37.063L60.727,37.063z
	 M45.641,58.557c-2.273,0-4.443-0.619-6.406-1.652l-1.344-0.827l-1.551,0.312C34.997,56.593,33.55,56.8,32,56.8
	c-13.64,0-24.697-11.057-24.697-24.697c0-1.446,0.104-2.893,0.414-4.34l0.31-1.55l-0.93-1.447c-1.136-1.963-1.653-4.133-1.653-6.407
	c0-7.13,5.787-12.917,12.917-12.917c2.273,0,4.443,0.62,6.407,1.653l1.343,0.827l1.55-0.31C29.106,7.407,30.553,7.2,32,7.2
	c13.641,0,24.695,11.057,24.695,24.697c0,1.446-0.104,2.893-0.412,4.339l-0.311,1.55L56.8,39.13
	c1.138,1.963,1.653,4.134,1.653,6.407C58.557,52.77,52.77,58.557,45.641,58.557z"/>
<path opacity="0.25" fill="#DDDDDD" d="M37.27,29.21l-6.51-1.447c-2.479-0.62-5.27-1.343-5.27-3.72s1.963-4.03,5.58-4.03
	c7.336,0,6.716,5.063,10.333,5.063c1.859,0,3.515-1.033,3.515-2.997c0-4.546-7.233-7.956-13.434-7.956
	c-6.613,0-13.64,2.687-13.64,10.333c0,3.617,1.24,7.543,8.37,9.403l8.887,2.272c2.687,0.62,3.514,2.171,3.514,3.515
	c0,2.272-2.377,4.752-6.407,4.752c-7.957,0-6.82-6.303-11.057-6.303c-1.86,0-3.41,1.344-3.41,3.203
	c0,3.721,4.546,8.783,14.466,8.783c9.506,0,14.26-4.753,14.26-10.953C46.363,34.997,44.503,30.863,37.27,29.21L37.27,29.21z"/>
</svg>
